<?xml version="1.0" encoding="utf-8"?>
<!-- Generator: Adobe Illustrator 26.3.1, SVG Export Plug-In . SVG Version: 6.00 Build 0)  -->
<svg version="1.1" id="Layer_3" xmlns="http://www.w3.org/2000/svg" xmlns:xlink="http://www.w3.org/1999/xlink" x="0px" y="0px"
	 viewBox="0 0 360 360" style="enable-background:new 0 0 360 360;" xml:space="preserve">
<style type="text/css">
	.st0{fill:none;stroke:#000000;stroke-miterlimit:10;}
	.st1{fill-rule:evenodd;clip-rule:evenodd;}
	.st2{fill-rule:evenodd;clip-rule:evenodd;fill:#FFFFFF;}
	.st3{fill:#FFFFFF;}
	.st4{fill-rule:evenodd;clip-rule:evenodd;fill:url(#SVGID_1_);}
	.st5{fill:url(#SVGID_00000106141923258650254880000007635884810138524060_);}
	.st6{fill-rule:evenodd;clip-rule:evenodd;fill:url(#SVGID_00000121992011033081571450000010564244209149373347_);}
	.st7{fill:url(#SVGID_00000114777739614323870720000004464685488675285948_);}
	.st8{fill:#F47843;}
	.st9{fill-rule:evenodd;clip-rule:evenodd;fill:url(#SVGID_00000056413966267900454030000000901015460523453855_);}
	.st10{fill:url(#SVGID_00000111161793081141011610000017030008570364874430_);}
	.st11{fill-rule:evenodd;clip-rule:evenodd;fill:url(#SVGID_00000099635134888663748780000000530038712280019120_);}
	.st12{fill:url(#SVGID_00000154418661024594652820000011361307915683003278_);}
	.st13{fill-rule:evenodd;clip-rule:evenodd;fill:url(#SVGID_00000041255576529019206960000016023531285612298389_);}
	.st14{fill:url(#SVGID_00000123411435256085696730000008918877925414423684_);}
	.st15{fill-rule:evenodd;clip-rule:evenodd;fill:url(#SVGID_00000050645515242625381470000015649804884953774782_);}
	.st16{fill:url(#SVGID_00000003786137507664844930000018290760911343838117_);}
</style>
<polygon class="st1" points="212.5,171.7 208.2,172.4 207.1,175.6 206.1,172.3 201.8,171.5 206.1,170.8 207.2,167.6 208.2,170.8 "/>
<g>
	<path d="M247.8,108.2c5.4,0.9,9.3,5.6,9.3,5.6l-22.3-0.7C236,109.3,241.1,107,247.8,108.2z M323.2,135.7c-2.5-4.6-6.3-7.6-10.6-7.6
		c-6,0-11,5.8-12.9,13.8l0.1-2.3c1-6.5,6.9-14.1,11.2-14.1h-10.3l0,0h-92.2c5.5,4.7,8.2,11.9,8.6,18.7c-4.8-13.3-13.1-17-23.7-17
		c-10.6,0-22.1,6.5-28.5,25.3c-0.3-6.5,3.4-19.6,12.9-26.9c-12,0-31.1,11.9-37,11.7c0,0,13.5-5.5,18.4-11.7c0,0,6.1-7.7-1.2-9.6
		c-2.1-0.5-5-0.2-8.2,0.7c0,0,0,0,0,0c-0.1,0-0.3,0.1-0.4,0.1c-0.3,0.1-0.6,0.2-0.9,0.3c-7.8,2.6-23.4,9.5-31.1,12.7
		c-0.9,0.4-1.9,0.8-3,1.3c-0.9,0.4-1.9,0.6-2.9,0.6H68.8c-0.1,0-0.1-0.1-0.1-0.2c4.6-2.9,7.6-5.2,9.9-7.1c2-1.5,3.9-3.3,5.5-5.2
		c0,0,48.7-5.5,80.1-5.3c31.4,0.2,53.9,1.6,53.9,1.6s14.6-19.3,15-20c0.4-0.8,2.3-2.7-4.5-3.4c-6.7-0.8-26.7-2.2-49.7,3.5
		c0,0,15.5-5.4,33.6-6.3c23.7-1.1,37,0,50.4,4.8c14.5,5.2,38,22.5,38,22.5s2.8,2.1,5.6,2.5c2.7,0.3,12.1,0.6,12.6,0.6
		c0.5,0,1,1,0.2,1.3c-1,0.4-5.9,2.1-4.4,3C316.2,124.6,319.8,128,323.2,135.7z M279.2,104.4c-10.3-6.1-21.3-9.7-29.3-11.2
		c-8.1-1.5-11.2,3-13.1,5.4S224,115.9,224,115.9s54.3,2.1,64.9,1.5C299.5,116.8,289.6,110.5,279.2,104.4z M215.4,128.7
		c1.1,1.5,2,3.1,2.7,4.7c0.1-0.8,0.3-1.9,0.4-3l52.6-1.7L215.4,128.7z"/>
	<path class="st1" d="M311.9,112.5l-5.4-2.2l-3.5,2.9l1.2-4.4l-4.3-4l5.4,2.2l3.5-2.9l-1.2,4.4L311.9,112.5z M275.7,108.8l0.5-1.9
		l-1.5,1.3l-2.4-1l1.9,1.7l-0.5,1.9l1.5-1.3l2.4,1L275.7,108.8z M291.2,99l1.9-0.5l-1.9-0.7l-0.3-2.5l-0.6,2.5l-1.9,0.5l1.9,0.7
		l0.3,2.5L291.2,99z M191.3,104.7l4.1-1.7l2.7,2.2l-0.9-3.4l3.3-3.1l-4.1,1.7l-2.7-2.2l0.9,3.4L191.3,104.7z"/>
</g>
<path d="M247.6,78.7c-21-29.6-55.6-48.8-94.6-48.8c-64.1,0-116.1,52-116.1,116.1c0,64.1,52,116.1,116.1,116.1
	c39.1,0,73.6-19.3,94.6-48.8c-20.1,25.9-51.5,42.6-86.8,42.6c-60.7,0-109.8-49.2-109.8-109.8c0-60.7,49.2-109.8,109.8-109.8
	C196.1,36.1,227.5,52.8,247.6,78.7z"/>
<g>
	<path d="M99.7,224.1c-0.3-0.5-0.5-1.1-0.8-1.7c-0.2-0.6-0.3-1.2-0.3-1.8v-18.4c0-0.6,0.1-1.2,0.3-1.7c0.2-0.6,0.5-1.1,0.8-1.6
		c0.7-0.9,1.5-1.6,2.4-2.1c0.9-0.5,1.9-0.8,3.1-0.8c0.8,0,1.7,0.2,2.5,0.5c0.8,0.3,1.5,0.8,2.1,1.3c0.6,0.6,1.1,1.2,1.5,2
		c0.4,0.8,0.6,1.6,0.6,2.5c0,0,0,0.1,0,0.2c0,0.1,0,0.1-0.1,0.1h-3.1l-0.1-0.1c-0.2-0.9-0.6-1.6-1.1-2.2c-0.5-0.6-1.3-0.9-2.2-0.9
		c-0.4,0-0.7,0.1-1.1,0.2c-0.4,0.1-0.7,0.3-1,0.6c-0.3,0.2-0.5,0.5-0.7,0.9c-0.2,0.4-0.3,0.7-0.3,1.1v18.4c0,0.4,0.1,0.8,0.3,1.1
		c0.2,0.3,0.4,0.6,0.7,0.9c0.3,0.3,0.6,0.5,1,0.6c0.4,0.1,0.7,0.2,1.1,0.2c0.9,0,1.7-0.3,2.2-0.9c0.5-0.6,0.9-1.3,1.1-2.2l0.1-0.1
		h3.1c0.1,0,0.1,0,0.1,0.1c0,0.1,0,0.1,0,0.1c0,0.7-0.1,1.5-0.4,2.1c-0.3,0.7-0.7,1.3-1.1,1.9c-0.5,0.5-1,1-1.7,1.4
		c-0.6,0.4-1.3,0.7-2,0.8c-0.1,0-0.4,0.1-0.6,0.1c-0.3,0-0.5,0-0.6,0c-1.2,0-2.2-0.2-3.1-0.7C101.3,225.7,100.4,225,99.7,224.1z"/>
	<path d="M114.1,226.5l4.1-30.4h4.7c0.1,0,0.1,0.1,0.2,0.2c0,0.1,0,0.2,0,0.2l4.1,30v0.2c0,0,0,0.1,0,0.2c0,0.1,0,0.1-0.1,0.1h-3.2
		l0,0c0,0,0,0,0,0c0,0,0-0.1,0-0.1c0-0.1,0-0.1,0-0.2c0-0.1,0-0.2-0.1-0.5c0-0.3-0.1-0.6-0.1-1c-0.1-0.4-0.1-0.7-0.1-1
		c0-0.3-0.1-0.5-0.1-0.6c0-0.2-0.1-0.4-0.2-0.6c-0.1-0.2-0.3-0.3-0.5-0.3h-4c-0.2,0-0.4,0.1-0.5,0.3c-0.1,0.2-0.1,0.4-0.2,0.6
		c0,0.1-0.1,0.3-0.1,0.6c0,0.3-0.1,0.6-0.1,0.9c-0.1,0.3-0.1,0.6-0.1,0.9c0,0.3-0.1,0.5-0.1,0.6c0,0,0,0.1,0,0.2
		c0,0.1-0.1,0.2-0.1,0.2h-3.2c0,0-0.1,0-0.1-0.1v-0.2V226.5z M118.7,218.3c0,0.2,0,0.3,0.1,0.5c0.1,0.2,0.2,0.3,0.4,0.3h2.8
		c0.2,0,0.4-0.1,0.4-0.3c0.1-0.2,0.1-0.4,0.1-0.5v-0.2l-1.2-8.9c0-0.2-0.1-0.4-0.2-0.6c-0.1-0.2-0.3-0.3-0.6-0.3
		c-0.2,0-0.4,0.1-0.5,0.3c-0.1,0.2-0.2,0.4-0.2,0.6l-1.2,8.9V218.3z"/>
	<path d="M129.7,196h8.1c0.6,0,1.2,0.1,1.8,0.4c0.6,0.3,1.1,0.6,1.6,1.1c0.5,0.5,0.9,1,1.2,1.6c0.3,0.6,0.4,1.2,0.4,1.8v8.8
		c0,0.7-0.2,1.4-0.6,2.1c-0.4,0.7-0.9,1.3-1.5,1.7c-0.1,0.1-0.3,0.2-0.4,0.3c-0.2,0.1-0.3,0.2-0.4,0.2c-0.1,0.1-0.2,0.2-0.3,0.3
		c-0.1,0.1-0.1,0.3-0.1,0.5v0.2l3.4,11.4v0.1c0,0,0,0.1,0,0.2c0,0.1-0.1,0.1-0.1,0.1h-3.3l-3.5-11.7c0-0.1-0.1-0.2-0.2-0.4
		c-0.1-0.1-0.2-0.2-0.4-0.2h-1.6c-0.1,0-0.3,0.1-0.4,0.2c-0.1,0.2-0.2,0.3-0.2,0.4v11.4l-0.2,0.1h-3.2V196z M133.6,211.2
		C133.6,211.2,133.6,211.2,133.6,211.2c0.1,0,0.1,0,0.2,0.1h3.9c0.2,0,0.4-0.1,0.6-0.2c0.2-0.1,0.4-0.2,0.6-0.4
		c0.2-0.2,0.3-0.4,0.4-0.6c0.1-0.2,0.2-0.4,0.2-0.6v-8.4c0-0.2-0.1-0.4-0.2-0.6c-0.1-0.2-0.3-0.4-0.4-0.6c-0.2-0.2-0.4-0.3-0.6-0.4
		c-0.2-0.1-0.4-0.2-0.6-0.2h-3.9c-0.2,0-0.3,0.1-0.4,0.2c-0.1,0.2-0.2,0.3-0.2,0.5v10.4c0,0.1,0.1,0.3,0.2,0.4
		C133.4,211.1,133.5,211.1,133.6,211.2z"/>
	<path d="M145.6,221.7c0-0.1,0-0.1,0.1-0.1h3.1c0.1,0,0.2,0.1,0.2,0.3c0,0.2,0.1,0.3,0.1,0.4c0.2,0.3,0.4,0.6,0.7,0.8
		c0.3,0.3,0.7,0.4,1,0.4h2.7c0.5,0,0.9-0.2,1.3-0.6c0.4-0.4,0.6-0.8,0.6-1.3v-6.5c0-0.5-0.2-1-0.6-1.3c-0.4-0.3-0.8-0.6-1.3-0.6
		c-0.7,0-1.3,0-2,0c-0.6,0-1.3-0.1-1.9-0.2c-0.6-0.1-1.2-0.4-1.7-0.7c-0.5-0.3-1-0.8-1.4-1.4c-0.3-0.4-0.5-0.8-0.6-1.2
		c-0.2-0.4-0.2-0.9-0.2-1.3v-7.5c0-0.6,0.1-1.2,0.4-1.8c0.3-0.6,0.7-1.1,1.2-1.5c0.5-0.4,1-0.8,1.6-1.1c0.6-0.3,1.2-0.4,1.8-0.4h3
		c0.7,0,1.3,0.1,1.9,0.4c0.6,0.3,1.1,0.6,1.6,1.1c0.5,0.5,0.9,1,1.1,1.6c0.3,0.6,0.4,1.2,0.4,1.9c0,0,0,0.1,0,0.2
		c0,0.1,0,0.1-0.1,0.1h-3.1l-0.1-0.1c-0.1-0.5-0.4-0.9-0.7-1.3c-0.3-0.4-0.7-0.6-1.3-0.6h-2.6c-0.2,0-0.4,0.1-0.6,0.2
		c-0.2,0.1-0.4,0.2-0.6,0.4c-0.2,0.2-0.3,0.3-0.4,0.6c-0.1,0.2-0.2,0.4-0.2,0.6v6.9c0,0.5,0.2,0.9,0.6,1.2c0.4,0.3,0.8,0.5,1.3,0.5
		c0.1,0,0.3,0,0.6,0c0.3,0,0.5,0,0.8,0c0.3,0,0.6,0,0.8,0c0.3,0,0.5,0,0.6,0c1.1,0.1,2.1,0.4,2.9,1c0.8,0.6,1.4,1.4,1.9,2.4
		c0.1,0.3,0.2,0.5,0.3,0.7c0.1,0.2,0.1,0.4,0.1,0.7v7.5c0,0.5-0.1,0.9-0.3,1.3c-0.2,0.4-0.4,0.8-0.6,1.2c-0.4,0.7-1,1.3-1.8,1.7
		c-0.8,0.4-1.6,0.6-2.4,0.6h-2.9c-0.7,0-1.3-0.1-1.9-0.4c-0.6-0.3-1.1-0.6-1.6-1.1c-0.5-0.5-0.9-1-1.1-1.6
		C145.8,223.2,145.6,222.5,145.6,221.7L145.6,221.7z"/>
</g>
<g>
	<path d="M95.4,156.2L95.4,156.2l2.8-0.1l0.1,0.1l0.9,14.6c0,0.2,0.1,0.3,0.3,0.4c0.2,0.1,0.4,0.2,0.5,0.2c0.2,0,0.3-0.1,0.4-0.2
		c0.1-0.2,0.2-0.3,0.2-0.5l1.1-5c0-0.2,0.1-0.2,0.2-0.2c0.1,0,0.2,0.1,0.3,0.2l1.1,5c0,0.2,0.1,0.4,0.2,0.5c0.1,0.1,0.3,0.2,0.5,0.2
		c0.2,0,0.3-0.1,0.5-0.2c0.2-0.1,0.3-0.3,0.3-0.5l0.9-14.7h2.7l0.2,0.2l-1.7,30.6l-0.1,0.1c0,0,0,0-0.1,0c0,0,0,0-0.1,0h-2.9
		l-1.1-5.3c0-0.2-0.1-0.3-0.3-0.4c-0.1-0.1-0.3-0.2-0.4-0.2c-0.2,0-0.4,0.1-0.5,0.2c-0.1,0.1-0.2,0.3-0.2,0.5l-1.1,4.9
		c0,0,0,0.1-0.1,0.2c0,0.1-0.1,0.1-0.1,0.1h-2.8L95.4,156.2z"/>
	<path d="M111.1,183.6h2.7c0.1,0,0.3-0.1,0.4-0.2c0.2-0.1,0.3-0.3,0.3-0.4v-22.9c0-0.1-0.1-0.3-0.2-0.4c-0.1-0.1-0.3-0.2-0.4-0.2
		h-2.6l-0.1-0.2v-3.1l0.1-0.1h10l0.1,0.1c0,0,0,0,0,0.1c0,0,0,0,0,0.1v3.1l-0.1,0.2h-2.7c-0.1,0-0.3,0.1-0.4,0.2
		c-0.1,0.1-0.2,0.3-0.2,0.4V183c0,0.1,0.1,0.3,0.2,0.4c0.1,0.1,0.3,0.2,0.4,0.2h2.6l0.1,0.2v3.1l-0.1,0.1h-10.1V183.6z"/>
	<path d="M124,156.1h3.3l5,15.3c0.1,0.3,0.4,0.5,0.6,0.5c0.2,0,0.3-0.1,0.5-0.2c0.2-0.1,0.3-0.3,0.3-0.5v-15.1h3.2l0.1,0.1v30.6
		l-0.1,0.1h-3.2l-5-15.3c0-0.1-0.1-0.2-0.3-0.3c-0.2-0.1-0.3-0.2-0.4-0.2c-0.2,0-0.3,0.1-0.5,0.2c-0.2,0.1-0.3,0.3-0.3,0.5v15
		l-0.2,0.1H124V156.1z"/>
	<path d="M155.7,156.1h8.1c0.5,0,1,0.1,1.5,0.3c0.5,0.2,0.9,0.4,1.4,0.6c0.6,0.6,1.1,1.2,1.6,1.9c0.5,0.7,0.7,1.4,0.7,2.3v8.4
		c0,0.9-0.2,1.7-0.7,2.3c-0.5,0.7-1,1.3-1.6,1.9c-0.4,0.2-0.9,0.4-1.4,0.6c-0.5,0.2-1,0.3-1.5,0.3h-4.1c-0.1,0-0.3,0.1-0.4,0.2
		c-0.1,0.2-0.2,0.3-0.2,0.4v11.4l-0.2,0.1h-3.2V156.1z M159.5,171.3C159.5,171.3,159.5,171.3,159.5,171.3c0.1,0,0.1,0,0.2,0.1h3.9
		c0.2,0,0.4-0.1,0.6-0.2c0.2-0.1,0.4-0.2,0.6-0.4c0.2-0.2,0.3-0.4,0.4-0.6c0.1-0.2,0.2-0.4,0.2-0.6v-8.4c0-0.2-0.1-0.4-0.2-0.6
		c-0.1-0.2-0.3-0.4-0.4-0.6c-0.2-0.2-0.4-0.3-0.6-0.4c-0.2-0.1-0.4-0.2-0.6-0.2h-3.9c-0.2,0-0.3,0.1-0.4,0.2
		c-0.1,0.2-0.2,0.3-0.2,0.5v10.4c0,0.1,0.1,0.3,0.2,0.4C159.3,171.1,159.4,171.2,159.5,171.3z"/>
	<path d="M171.1,156.1h8.1c0.6,0,1.2,0.1,1.8,0.4c0.6,0.3,1.1,0.6,1.6,1.1c0.5,0.5,0.9,1,1.2,1.6c0.3,0.6,0.4,1.2,0.4,1.8v8.8
		c0,0.7-0.2,1.4-0.6,2.1c-0.4,0.7-0.9,1.3-1.5,1.7c-0.1,0.1-0.3,0.2-0.4,0.3c-0.2,0.1-0.3,0.2-0.4,0.2c-0.1,0.1-0.2,0.2-0.3,0.3
		c-0.1,0.1-0.1,0.3-0.1,0.5v0.2l3.4,11.4v0.1c0,0,0,0.1,0,0.2c0,0.1-0.1,0.1-0.1,0.1h-3.3l-3.5-11.7c0-0.1-0.1-0.2-0.2-0.4
		c-0.1-0.1-0.2-0.2-0.4-0.2h-1.6c-0.1,0-0.3,0.1-0.4,0.2c-0.1,0.2-0.2,0.3-0.2,0.4v11.4l-0.2,0.1h-3.2V156.1z M175,171.3
		C175,171.3,175,171.3,175,171.3c0.1,0,0.1,0,0.2,0.1h3.9c0.2,0,0.4-0.1,0.6-0.2c0.2-0.1,0.4-0.2,0.6-0.4c0.2-0.2,0.3-0.4,0.4-0.6
		c0.1-0.2,0.2-0.4,0.2-0.6v-8.4c0-0.2-0.1-0.4-0.2-0.6c-0.1-0.2-0.3-0.4-0.4-0.6c-0.2-0.2-0.4-0.3-0.6-0.4c-0.2-0.1-0.4-0.2-0.6-0.2
		h-3.9c-0.2,0-0.3,0.1-0.4,0.2c-0.1,0.2-0.2,0.3-0.2,0.5v10.4c0,0.1,0.1,0.3,0.2,0.4C174.8,171.1,174.9,171.2,175,171.3z"/>
	<path d="M200.2,156.1C200.2,156.1,200.2,156.1,200.2,156.1L200.2,156.1C200.2,156.2,200.2,156.2,200.2,156.1
		c0.1,0.1,0.1,0.1,0.1,0.1c0,0,0,0,0,0.1v3.1l-0.1,0.2h-9.1c-0.1,0-0.3,0.1-0.4,0.2c-0.1,0.2-0.2,0.3-0.2,0.4v9
		c0,0.1,0.1,0.3,0.2,0.4c0.1,0.2,0.3,0.2,0.4,0.2h5.1l0.1,0.2v3.1l-0.1,0.1h-5c-0.2,0-0.3,0.1-0.5,0.3c-0.2,0.2-0.2,0.3-0.2,0.5v9
		c0,0.2,0.1,0.3,0.2,0.5c0.2,0.1,0.3,0.2,0.5,0.2h9l0.1,0.2v3.1l-0.1,0.1h-13v-30.9H200.2z"/>
	<path d="M224.7,156.1c0.8,0,1.5,0.1,2.2,0.4c0.7,0.3,1.4,0.6,1.9,1.1c0.6,0.5,1.1,1,1.5,1.7c0.4,0.6,0.7,1.3,0.9,2.1
		c0,0.1,0,0.3,0.1,0.5c0,0.3,0,0.5,0,0.5v18.3c0,0.4-0.1,0.8-0.2,1.2c-0.1,0.4-0.2,0.8-0.4,1.1c-0.5,1.2-1.4,2.2-2.4,2.9
		c-1.1,0.7-2.3,1.1-3.6,1.1c-0.8,0-1.7-0.2-2.4-0.5c-0.8-0.3-1.5-0.8-2.1-1.3c-0.6-0.6-1.1-1.2-1.5-2c-0.4-0.8-0.6-1.6-0.6-2.4
		v-18.4c0-0.9,0.2-1.7,0.6-2.4c0.4-0.8,0.9-1.4,1.5-2c0.6-0.6,1.3-1,2.1-1.3C223.1,156.3,223.9,156.1,224.7,156.1z M224.7,159.5
		c-0.4,0-0.8,0.1-1.2,0.2c-0.4,0.2-0.7,0.4-1,0.7c-0.3,0.3-0.5,0.6-0.7,1c-0.2,0.4-0.3,0.8-0.3,1.1v18c0,0.4,0.1,0.8,0.3,1.2
		c0.2,0.4,0.4,0.7,0.7,1c0.3,0.3,0.6,0.5,1,0.7c0.4,0.2,0.8,0.2,1.2,0.2c0.4,0,0.8-0.1,1.2-0.2c0.4-0.2,0.7-0.4,1.1-0.7
		c0.3-0.3,0.6-0.6,0.7-1c0.2-0.4,0.3-0.8,0.3-1.2v-17.9c0-0.4-0.1-0.8-0.3-1.2c-0.2-0.4-0.4-0.7-0.7-1c-0.3-0.3-0.7-0.5-1.1-0.7
		C225.5,159.6,225.1,159.5,224.7,159.5z"/>
	<path d="M234.1,156.2L234.1,156.2l2.8-0.1l0.1,0.1l0.9,14.6c0,0.2,0.1,0.3,0.3,0.4c0.2,0.1,0.4,0.2,0.5,0.2c0.2,0,0.3-0.1,0.4-0.2
		c0.1-0.2,0.2-0.3,0.2-0.5l1.1-5c0-0.2,0.1-0.2,0.2-0.2c0.1,0,0.2,0.1,0.3,0.2l1.1,5c0,0.2,0.1,0.4,0.2,0.5c0.1,0.1,0.3,0.2,0.5,0.2
		c0.2,0,0.3-0.1,0.5-0.2c0.2-0.1,0.3-0.3,0.3-0.5l0.9-14.7h2.7l0.2,0.2l-1.7,30.6l-0.1,0.1c0,0,0,0-0.1,0c0,0,0,0-0.1,0h-2.9
		l-1.1-5.3c0-0.2-0.1-0.3-0.3-0.4c-0.1-0.1-0.3-0.2-0.4-0.2c-0.2,0-0.4,0.1-0.5,0.2c-0.1,0.1-0.2,0.3-0.2,0.5l-1.1,4.9
		c0,0,0,0.1-0.1,0.2c0,0.1-0.1,0.1-0.1,0.1h-2.8L234.1,156.2z"/>
	<path d="M250,156.1h3.3l5,15.3c0.1,0.3,0.4,0.5,0.6,0.5c0.2,0,0.3-0.1,0.5-0.2c0.2-0.1,0.3-0.3,0.3-0.5v-15.1h3.2l0.1,0.1v30.6
		L263,187h-3.2l-5-15.3c0-0.1-0.1-0.2-0.3-0.3c-0.2-0.1-0.3-0.2-0.4-0.2c-0.2,0-0.3,0.1-0.5,0.2c-0.2,0.1-0.3,0.3-0.3,0.5v15
		l-0.2,0.1H250V156.1z"/>
	<path d="M279.2,156.1C279.2,156.1,279.2,156.1,279.2,156.1L279.2,156.1C279.3,156.2,279.3,156.2,279.2,156.1
		c0.1,0.1,0.1,0.1,0.1,0.1c0,0,0,0,0,0.1v3.1l-0.1,0.2h-9.1c-0.1,0-0.3,0.1-0.4,0.2c-0.1,0.2-0.2,0.3-0.2,0.4v9
		c0,0.1,0.1,0.3,0.2,0.4c0.1,0.2,0.3,0.2,0.4,0.2h5.1l0.1,0.2v3.1l-0.1,0.1h-5c-0.2,0-0.3,0.1-0.5,0.3c-0.2,0.2-0.2,0.3-0.2,0.5v9
		c0,0.2,0.1,0.3,0.2,0.5c0.2,0.1,0.3,0.2,0.5,0.2h9l0.1,0.2v3.1l-0.1,0.1h-13v-30.9H279.2z"/>
	<path d="M281.8,156.2l0.1-0.1h7.9c0.7,0,1.3,0.1,1.9,0.4c0.6,0.3,1.2,0.7,1.6,1.1c0.5,0.5,0.9,1,1.1,1.6c0.3,0.6,0.4,1.3,0.4,1.9
		v20.7c0,0.7-0.1,1.3-0.4,1.9c-0.3,0.6-0.6,1.1-1.1,1.6c-0.5,0.5-1,0.9-1.6,1.1c-0.6,0.3-1.3,0.4-1.9,0.4h-8.1V156.2z M285.7,183.5
		c0,0,0.1,0,0.1,0c0,0,0,0,0.1,0h3.8c0.2,0,0.5-0.1,0.7-0.2c0.2-0.1,0.4-0.3,0.6-0.4c0.2-0.2,0.3-0.4,0.4-0.6
		c0.1-0.2,0.2-0.5,0.2-0.7v-20.3c0-0.2-0.1-0.4-0.2-0.6c-0.1-0.2-0.2-0.4-0.4-0.6c-0.2-0.2-0.4-0.3-0.6-0.4
		c-0.2-0.1-0.4-0.2-0.6-0.2h-4c-0.1,0-0.3,0.1-0.4,0.2c-0.1,0.1-0.2,0.3-0.2,0.4v22.8c0,0.1,0.1,0.3,0.2,0.4
		C285.5,183.4,285.6,183.5,285.7,183.5z"/>
</g>
<g>
	<path d="M186,226.9v-1.9c0-0.1,0-0.2-0.1-0.3c-0.1-0.1-0.2-0.2-0.3-0.2h-16.7c-0.1,0-0.2,0.1-0.3,0.2c-0.1,0.1-0.2,0.2-0.2,0.3v1.9
		l-0.1,0.1H166l-0.1-0.1v-7.3l0,0c0,0,0,0,0,0c0,0,0,0,0,0h2.2l0.1,0.1v1.9c0,0.1,0,0.2,0.1,0.3c0.1,0.1,0.2,0.1,0.3,0.1h16.7
		c0.1,0,0.2-0.1,0.3-0.2c0.1-0.1,0.2-0.2,0.2-0.3v-1.9l0.1-0.1h2.2l0.1,0.1v7.4H186z"/>
	<path d="M165.9,217.4V215l11.2-3.7c0.2-0.1,0.4-0.3,0.4-0.5c0-0.1,0-0.3-0.1-0.4c-0.1-0.1-0.2-0.2-0.4-0.2h-11v-2.4l0.1-0.1h22.4
		l0.1,0.1v2.4l-11.2,3.7c-0.1,0-0.2,0.1-0.2,0.2c-0.1,0.1-0.1,0.2-0.1,0.3c0,0.1,0,0.2,0.1,0.4c0.1,0.1,0.2,0.2,0.4,0.2h10.9
		l0.1,0.1v2.3H165.9z"/>
	<path d="M186.4,204.9c-0.4,0.2-0.8,0.4-1.2,0.6c-0.4,0.2-0.9,0.2-1.3,0.2h-13.4c-0.4,0-0.9-0.1-1.3-0.2c-0.4-0.2-0.8-0.3-1.2-0.6
		c-0.6-0.5-1.1-1.1-1.5-1.7c-0.4-0.7-0.6-1.4-0.6-2.2c0-0.6,0.1-1.2,0.4-1.8c0.2-0.6,0.6-1.1,1-1.6c0.4-0.5,0.9-0.8,1.5-1.1
		c0.6-0.3,1.2-0.4,1.8-0.4c0,0,0.1,0,0.1,0c0,0,0.1,0,0.1,0.1v2.3l0,0c-0.6,0.2-1.2,0.4-1.6,0.8c-0.4,0.4-0.6,0.9-0.6,1.6
		c0,0.3,0.1,0.5,0.2,0.8c0.1,0.3,0.2,0.5,0.4,0.7c0.2,0.2,0.4,0.4,0.7,0.5c0.3,0.1,0.5,0.2,0.8,0.2h13.5c0.3,0,0.6-0.1,0.8-0.2
		c0.2-0.1,0.5-0.3,0.7-0.5c0.2-0.2,0.3-0.5,0.4-0.7c0.1-0.3,0.2-0.5,0.2-0.8c0-0.7-0.2-1.2-0.6-1.6c-0.4-0.4-1-0.7-1.6-0.8l0,0v-2.3
		c0,0,0-0.1,0.1-0.1c0,0,0.1,0,0.1,0c0.5,0,1.1,0.1,1.6,0.3c0.5,0.2,1,0.5,1.4,0.8c0.4,0.3,0.7,0.8,1,1.2c0.3,0.5,0.5,1,0.6,1.5
		c0,0.1,0,0.3,0,0.5c0,0.2,0,0.4,0,0.5c0,0.9-0.2,1.6-0.5,2.3C187.6,203.8,187,204.3,186.4,204.9z"/>
</g>
<g>
	<path d="M57.5,292.5h12.9c0.9,0,1.3,0.4,1.3,1.2v1.7c0,0.8-0.4,1.2-1.2,1.2h-8.4c-1.3,0-2,0.4-2,1.2v6c0,0.8,0.4,1.3,1.2,1.3
		c1-0.3,2-0.4,3.1-0.2c3,0.6,5.1,1.9,6.3,3.9c0.6,0.9,0.9,2.1,0.9,3.7v9.8c0,5-2.5,7.5-7.6,7.5c-4.9-0.2-7.7-2.5-8.2-6.6
		c0-1,0.5-1.5,1.4-1.5c1.9,0,3,0.5,3.2,1.5c0.7,1.3,1.9,2,3.7,2c2,0,3.2-0.7,3.6-2v-11.4c0-0.9-0.6-1.8-1.8-2.6
		c-0.7-0.3-1.4-0.5-2-0.5c-1.1,0-2,0.4-2.9,1.1c-0.6,0.7-0.9,1.4-0.9,2.2c0,0.4-1.1,0.6-3.3,0.7c-0.7,0-1-0.5-1-1.4V294
		C56,293,56.5,292.5,57.5,292.5z"/>
	<path d="M90.6,292.5c0.7,0,1,0.3,1,0.9v24c0,1,0.2,1.5,0.6,1.5c0.6,0,1,0.3,1.1,0.9v2.1c-0.1,0.7-0.4,1.1-0.9,1.1
		c-0.5,0-0.7,0.5-0.7,1.4v3.8c0,1.1-0.5,1.6-1.4,1.6h-1.4c-0.9,0-1.4-0.5-1.4-1.6V324c0-0.7-0.4-1.1-1.1-1.1H79
		c-0.9,0-1.3-0.5-1.3-1.3v-2.4c0.1-1,0.3-1.8,0.6-2.6l6.7-23.2c0.3-0.7,0.7-1,1.4-1H90.6z M86.3,304c-0.3,0.1-0.6,0.6-0.9,1.5
		L82,317.9c-0.3,0.8,0.3,1.2,1.7,1.2h1.8c1.3,0.1,2-0.4,2-1.5v-13.4C87.5,303.9,87.1,303.8,86.3,304z"/>
	<path d="M106.3,292.3c5.2,0,7.9,2.3,7.9,6.9v22c0,5.7-2.6,8.6-7.9,8.6c-5.3,0-7.9-2.9-7.9-8.8v-21.7
		C98.4,294.7,101,292.3,106.3,292.3z M102.8,300.2v20.5c0,3.3,1.2,5,3.6,4.9c2.4,0,3.6-1.7,3.6-4.9v-20.5c0-2.1-1.2-3.1-3.6-3.1
		C104,297,102.8,298.1,102.8,300.2z"/>
	<path d="M125.6,306.9h3.6c1.4,0,2.1,0.6,2.1,1.7v2.7c0,1.1-0.7,1.7-2.1,1.7h-3.6c-1.3,0-2-0.6-1.9-1.8l0-2.7
		C123.6,307.5,124.3,306.9,125.6,306.9z"/>
	<path d="M141.7,292.5h12.8c1.1,0,1.7,0.2,1.7,0.7l0,2.1c0,1.3-0.3,2.3-0.8,3.1c-0.6,0.9-1.6,3.8-3,8.6c-1.4,4.8-2.6,11.2-3.5,19.1
		c-0.2,2.4-0.7,3.6-1.5,3.6l-1.4,0c-1.4,0-2.1-0.5-2.1-1.4c0.5-5.7,1.4-11.2,2.7-16.3c1.3-5.1,2.6-9.4,3.9-13l0.6-1.9
		c-0.1-0.4-0.5-0.7-1.2-0.7h-8.2c-0.7,0-1.2-0.3-1.4-0.9v-2.5C140.6,292.7,141,292.5,141.7,292.5z"/>
	<path d="M162.7,292.5h12.8c1.1,0,1.7,0.2,1.7,0.7l0,2.1c0,1.3-0.3,2.3-0.8,3.1c-0.6,0.9-1.6,3.8-3,8.6c-1.4,4.8-2.6,11.2-3.5,19.1
		c-0.2,2.4-0.7,3.6-1.5,3.6l-1.4,0c-1.4,0-2.1-0.5-2.1-1.4c0.5-5.7,1.4-11.2,2.7-16.3c1.3-5.1,2.6-9.4,3.9-13l0.6-1.9
		c-0.1-0.4-0.5-0.7-1.2-0.7h-8.2c-0.7,0-1.2-0.3-1.4-0.9v-2.5C161.6,292.7,162.1,292.5,162.7,292.5z"/>
	<path d="M191.2,292.5c4.8,0,7.3,2.2,7.5,6.7v6.6c0,1-0.3,1.8-0.7,2.6c-0.8,0.5-1.2,1.1-1.2,1.9c0,0.4,0.4,1,1.1,2
		c0.5,0.8,0.8,2.1,0.8,3.8v6.8c0,4.7-2.6,7-7.8,7c-5.4,0-8.1-2.2-8.1-6.7v-0.4c0-1,0.4-1.6,1.1-1.6h2.7c0.5,0.5,0.7,0.9,0.7,1.3
		c0.2,1.8,1.4,2.7,3.6,2.7c2.2,0,3.3-1.4,3.3-3.9l0-5.2c0-1.7-0.6-2.7-1.7-3.1c-1.6-0.5-2.4-1.2-2.4-2.1v-1.6c0-0.6,0.8-1.2,2.4-1.9
		c1.2-0.6,1.7-1.8,1.7-3.4V300c0-2-1.1-3-3.3-3c-2.4,0-3.6,1-3.6,2.9c0,0.7-1,1.1-3.1,1.1c-1,0-1.4-0.6-1.4-1.9v-0.4
		c0-4.2,2.6-6.3,7.7-6.3H191.2z"/>
	<path d="M210,306.9h3.6c1.4,0,2.1,0.6,2.1,1.7v2.7c0,1.1-0.7,1.7-2.1,1.7h-3.6c-1.3,0-2-0.6-1.9-1.8l0-2.7
		C207.9,307.5,208.6,306.9,210,306.9z"/>
	<path d="M232.9,292.3h2.5c0.8,0,1.2,0.3,1.2,1l0,35.7v0c0,0.5-0.4,0.7-1.2,0.7h-2.6c-0.7,0-1.1-0.2-1.1-0.7v-28.5
		c0-1.4-0.2-2.1-0.7-2.1h-1.6c-0.8,0-1.2-0.5-1.2-1.5v-1.3c0.2-1.2,0.8-1.8,1.8-1.9c0.9,0,1.6-0.3,2.2-1
		C232.4,292.5,232.6,292.3,232.9,292.3z"/>
	<path d="M247.1,292.5h12.8c1.1,0,1.7,0.2,1.7,0.7l0,2.1c0,1.3-0.3,2.3-0.8,3.1c-0.6,0.9-1.6,3.8-3,8.6c-1.4,4.8-2.6,11.2-3.5,19.1
		c-0.2,2.4-0.7,3.6-1.5,3.6l-1.4,0c-1.4,0-2.1-0.5-2.1-1.4c0.5-5.7,1.4-11.2,2.7-16.3c1.3-5.1,2.6-9.4,3.9-13l0.6-1.9
		c-0.1-0.4-0.5-0.7-1.2-0.7h-8.2c-0.7,0-1.2-0.3-1.4-0.9v-2.5C245.9,292.7,246.4,292.5,247.1,292.5z"/>
	<path d="M268.1,292.5h12.8c1.1,0,1.7,0.2,1.7,0.7l0,2.1c0,1.3-0.3,2.3-0.8,3.1c-0.6,0.9-1.6,3.8-3,8.6c-1.4,4.8-2.6,11.2-3.5,19.1
		c-0.2,2.4-0.7,3.6-1.5,3.6l-1.4,0c-1.4,0-2.1-0.5-2.1-1.4c0.5-5.7,1.4-11.2,2.7-16.3c1.3-5.1,2.6-9.4,3.9-13l0.6-1.9
		c-0.1-0.4-0.5-0.7-1.2-0.7h-8.2c-0.7,0-1.2-0.3-1.4-0.9v-2.5C267,292.7,267.4,292.5,268.1,292.5z"/>
	<path d="M296.6,292.5c4.8,0,7.3,2.2,7.5,6.7v6.6c0,1-0.3,1.8-0.7,2.6c-0.8,0.5-1.2,1.1-1.2,1.9c0,0.4,0.4,1,1.1,2
		c0.5,0.8,0.8,2.1,0.8,3.8v6.8c0,4.7-2.6,7-7.8,7c-5.4,0-8.1-2.2-8.1-6.7v-0.4c0-1,0.4-1.6,1.1-1.6h2.7c0.5,0.5,0.7,0.9,0.7,1.3
		c0.2,1.8,1.4,2.7,3.6,2.7c2.2,0,3.3-1.4,3.3-3.9l0-5.2c0-1.7-0.6-2.7-1.7-3.1c-1.6-0.5-2.4-1.2-2.4-2.1v-1.6c0-0.6,0.8-1.2,2.4-1.9
		c1.2-0.6,1.7-1.8,1.7-3.4V300c0-2-1.1-3-3.3-3c-2.4,0-3.6,1-3.6,2.9c0,0.7-1,1.1-3.1,1.1c-1,0-1.4-0.6-1.4-1.9v-0.4
		c0-4.2,2.6-6.3,7.7-6.3H296.6z"/>
</g>
</svg>
