<?xml version="1.0" encoding="utf-8"?>
<!-- Generator: Adobe Illustrator 26.3.1, SVG Export Plug-In . SVG Version: 6.00 Build 0)  -->
<svg version="1.1" id="Layer_3" xmlns="http://www.w3.org/2000/svg" xmlns:xlink="http://www.w3.org/1999/xlink" x="0px" y="0px"
	 viewBox="0 0 360 306" style="enable-background:new 0 0 360 306;" xml:space="preserve">
<style type="text/css">
	.st0{fill:none;stroke:#000000;stroke-miterlimit:10;}
	.st1{fill-rule:evenodd;clip-rule:evenodd;}
	.st2{fill-rule:evenodd;clip-rule:evenodd;fill:#FFFFFF;}
	.st3{fill:#FFFFFF;}
	.st4{fill-rule:evenodd;clip-rule:evenodd;fill:url(#SVGID_1_);}
	.st5{fill:url(#SVGID_00000165915856106671255510000008678642546830473090_);}
	.st6{fill-rule:evenodd;clip-rule:evenodd;fill:url(#SVGID_00000034804762988765280420000002451009153406994609_);}
	.st7{fill:url(#SVGID_00000060019412709601932330000008072965402963528873_);}
	.st8{fill:#F47843;}
	.st9{fill-rule:evenodd;clip-rule:evenodd;fill:url(#SVGID_00000176009760555513415830000015501922776692689559_);}
	.st10{fill:url(#SVGID_00000022532209594567714810000010919690480648617884_);}
	.st11{fill-rule:evenodd;clip-rule:evenodd;fill:url(#SVGID_00000019644948711071590440000008279854289915252909_);}
	.st12{fill:url(#SVGID_00000049905049905690568710000008485922565006893719_);}
	.st13{fill-rule:evenodd;clip-rule:evenodd;fill:url(#SVGID_00000063603855493010250100000013743830487223544713_);}
	.st14{fill:url(#SVGID_00000129198745999324388260000011857195734900929671_);}
	.st15{fill-rule:evenodd;clip-rule:evenodd;fill:url(#SVGID_00000003811578085566208470000005282413977701746877_);}
	.st16{fill:url(#SVGID_00000031178975085582993260000008759257128813371274_);}
</style>
<linearGradient id="SVGID_1_" gradientUnits="userSpaceOnUse" x1="999.5691" y1="-3708.6221" x2="1009.0125" y2="-3708.6221" gradientTransform="matrix(0.8803 0.4744 -0.4744 0.8803 -2436.2195 2966.8279)">
	<stop  offset="0" style="stop-color:#F47843"/>
	<stop  offset="1" style="stop-color:#E22C33"/>
</linearGradient>
<polygon class="st4" points="212.5,178.7 208.2,179.4 207.1,182.6 206.1,179.4 201.8,178.5 206.1,177.8 207.2,174.6 208.2,177.9 "/>
<g>
	
		<linearGradient id="SVGID_00000121974193801130568840000003987042327719648914_" gradientUnits="userSpaceOnUse" x1="44.4405" y1="127.6615" x2="320.2068" y2="127.6615">
		<stop  offset="0" style="stop-color:#F47843"/>
		<stop  offset="1" style="stop-color:#E22C33"/>
	</linearGradient>
	<path style="fill:url(#SVGID_00000121974193801130568840000003987042327719648914_);" d="M247.8,115.2c5.4,0.9,9.3,5.6,9.3,5.6
		l-22.3-0.7C236,116.4,241.1,114.1,247.8,115.2z M323.2,142.7c-2.5-4.6-6.3-7.6-10.6-7.6c-6,0-11,5.8-12.9,13.8l0.1-2.3
		c1-6.5,6.9-14.1,11.2-14.1h-10.3l0,0h-92.2c5.5,4.7,8.2,11.9,8.6,18.7c-4.8-13.3-13.1-17-23.7-17c-10.6,0-22.1,6.5-28.5,25.3
		c-0.3-6.5,3.4-19.6,12.9-26.9c-12,0-31.1,11.9-37,11.7c0,0,13.5-5.5,18.4-11.7c0,0,6.1-7.7-1.2-9.6c-2.1-0.5-5-0.2-8.2,0.7
		c0,0,0,0,0,0c-0.1,0-0.3,0.1-0.4,0.1c-0.3,0.1-0.6,0.2-0.9,0.3c-7.8,2.6-23.4,9.5-31.1,12.7c-0.9,0.4-1.9,0.8-3,1.3
		c-0.9,0.4-1.9,0.6-2.9,0.6H68.8c-0.1,0-0.1-0.1-0.1-0.2c4.6-2.9,7.6-5.2,9.9-7.1c2-1.5,3.9-3.3,5.5-5.2c0,0,48.7-5.5,80.1-5.3
		c31.4,0.2,53.9,1.6,53.9,1.6s14.6-19.3,15-20c0.4-0.8,2.3-2.7-4.5-3.4c-6.7-0.8-26.7-2.2-49.7,3.5c0,0,15.5-5.4,33.6-6.3
		c23.7-1.1,37,0,50.4,4.8c14.5,5.2,38,22.5,38,22.5s2.8,2.1,5.6,2.5c2.7,0.3,12.1,0.6,12.6,0.6c0.5,0,1,1,0.2,1.3
		c-1,0.4-5.9,2.1-4.4,3C316.2,131.7,319.8,135.1,323.2,142.7z M279.2,111.4c-10.3-6.1-21.3-9.7-29.3-11.2c-8.1-1.5-11.2,3-13.1,5.4
		S224,122.9,224,122.9s54.3,2.1,64.9,1.5C299.5,123.9,289.6,117.5,279.2,111.4z M215.4,135.7c1.1,1.5,2,3.1,2.7,4.7
		c0.1-0.8,0.3-1.9,0.4-3l52.6-1.7L215.4,135.7z"/>
	
		<linearGradient id="SVGID_00000077314375728296453620000004078796013569921975_" gradientUnits="userSpaceOnUse" x1="44.4405" y1="111.2585" x2="320.2068" y2="111.2585">
		<stop  offset="0" style="stop-color:#F47843"/>
		<stop  offset="1" style="stop-color:#E22C33"/>
	</linearGradient>
	<path style="fill-rule:evenodd;clip-rule:evenodd;fill:url(#SVGID_00000077314375728296453620000004078796013569921975_);" d="
		M311.9,119.5l-5.4-2.2l-3.5,2.9l1.2-4.4l-4.3-4l5.4,2.2l3.5-2.9l-1.2,4.4L311.9,119.5z M275.7,115.9l0.5-1.9l-1.5,1.3l-2.4-1
		l1.9,1.7l-0.5,1.9l1.5-1.3l2.4,1L275.7,115.9z M291.2,106.1l1.9-0.5l-1.9-0.7l-0.3-2.5l-0.6,2.5l-1.9,0.5l1.9,0.7l0.3,2.5
		L291.2,106.1z M191.3,111.7l4.1-1.7l2.7,2.2l-0.9-3.4l3.3-3.1l-4.1,1.7l-2.7-2.2l0.9,3.4L191.3,111.7z"/>
</g>
<linearGradient id="SVGID_00000127724112602899476340000004518223278394031498_" gradientUnits="userSpaceOnUse" x1="31.5221" y1="153" x2="454.0899" y2="153">
	<stop  offset="0" style="stop-color:#F47843"/>
	<stop  offset="1" style="stop-color:#E22C33"/>
</linearGradient>
<path style="fill:url(#SVGID_00000127724112602899476340000004518223278394031498_);" d="M247.6,85.7c-21-29.6-55.6-48.8-94.6-48.8
	c-64.1,0-116.1,52-116.1,116.1c0,64.1,52,116.1,116.1,116.1c39.1,0,73.6-19.3,94.6-48.8c-20.1,25.9-51.5,42.6-86.8,42.6
	c-60.7,0-109.8-49.2-109.8-109.8c0-60.7,49.2-109.8,109.8-109.8C196.1,43.2,227.5,59.8,247.6,85.7z"/>
<g>
	<path d="M99.7,231.1c-0.3-0.5-0.5-1.1-0.8-1.7c-0.2-0.6-0.3-1.2-0.3-1.8v-18.4c0-0.6,0.1-1.2,0.3-1.7c0.2-0.6,0.5-1.1,0.8-1.6
		c0.7-0.9,1.5-1.6,2.4-2.1c0.9-0.5,1.9-0.8,3.1-0.8c0.8,0,1.7,0.2,2.5,0.5c0.8,0.3,1.5,0.8,2.1,1.3c0.6,0.6,1.1,1.2,1.5,2
		c0.4,0.8,0.6,1.6,0.6,2.5c0,0,0,0.1,0,0.2c0,0.1,0,0.1-0.1,0.1h-3.1l-0.1-0.1c-0.2-0.9-0.6-1.6-1.1-2.2c-0.5-0.6-1.3-0.9-2.2-0.9
		c-0.4,0-0.7,0.1-1.1,0.2c-0.4,0.1-0.7,0.3-1,0.6c-0.3,0.2-0.5,0.5-0.7,0.9c-0.2,0.4-0.3,0.7-0.3,1.1v18.4c0,0.4,0.1,0.8,0.3,1.1
		c0.2,0.3,0.4,0.6,0.7,0.9c0.3,0.3,0.6,0.5,1,0.6c0.4,0.1,0.7,0.2,1.1,0.2c0.9,0,1.7-0.3,2.2-0.9c0.5-0.6,0.9-1.3,1.1-2.2l0.1-0.1
		h3.1c0.1,0,0.1,0,0.1,0.1c0,0.1,0,0.1,0,0.1c0,0.7-0.1,1.5-0.4,2.1c-0.3,0.7-0.7,1.3-1.1,1.9c-0.5,0.5-1,1-1.7,1.4
		c-0.6,0.4-1.3,0.7-2,0.8c-0.1,0-0.4,0.1-0.6,0.1c-0.3,0-0.5,0-0.6,0c-1.2,0-2.2-0.2-3.1-0.7C101.3,232.7,100.4,232,99.7,231.1z"/>
	<path d="M114.1,233.5l4.1-30.4h4.7c0.1,0,0.1,0.1,0.2,0.2c0,0.1,0,0.2,0,0.2l4.1,30v0.2c0,0,0,0.1,0,0.2c0,0.1,0,0.1-0.1,0.1h-3.2
		l0,0c0,0,0,0,0,0c0,0,0-0.1,0-0.1c0-0.1,0-0.1,0-0.2c0-0.1,0-0.2-0.1-0.5c0-0.3-0.1-0.6-0.1-1c-0.1-0.4-0.1-0.7-0.1-1
		c0-0.3-0.1-0.5-0.1-0.6c0-0.2-0.1-0.4-0.2-0.6c-0.1-0.2-0.3-0.3-0.5-0.3h-4c-0.2,0-0.4,0.1-0.5,0.3c-0.1,0.2-0.1,0.4-0.2,0.6
		c0,0.1-0.1,0.3-0.1,0.6c0,0.3-0.1,0.6-0.1,0.9c-0.1,0.3-0.1,0.6-0.1,0.9c0,0.3-0.1,0.5-0.1,0.6c0,0,0,0.1,0,0.2
		c0,0.1-0.1,0.2-0.1,0.2h-3.2c0,0-0.1,0-0.1-0.1v-0.2V233.5z M118.7,225.3c0,0.2,0,0.3,0.1,0.5c0.1,0.2,0.2,0.3,0.4,0.3h2.8
		c0.2,0,0.4-0.1,0.4-0.3c0.1-0.2,0.1-0.4,0.1-0.5v-0.2l-1.2-8.9c0-0.2-0.1-0.4-0.2-0.6c-0.1-0.2-0.3-0.3-0.6-0.3
		c-0.2,0-0.4,0.1-0.5,0.3c-0.1,0.2-0.2,0.4-0.2,0.6l-1.2,8.9V225.3z"/>
	<path d="M129.7,203.1h8.1c0.6,0,1.2,0.1,1.8,0.4c0.6,0.3,1.1,0.6,1.6,1.1c0.5,0.5,0.9,1,1.2,1.6c0.3,0.6,0.4,1.2,0.4,1.8v8.8
		c0,0.7-0.2,1.4-0.6,2.1c-0.4,0.7-0.9,1.3-1.5,1.7c-0.1,0.1-0.3,0.2-0.4,0.3c-0.2,0.1-0.3,0.2-0.4,0.2c-0.1,0.1-0.2,0.2-0.3,0.3
		c-0.1,0.1-0.1,0.3-0.1,0.5v0.2l3.4,11.4v0.1c0,0,0,0.1,0,0.2c0,0.1-0.1,0.1-0.1,0.1h-3.3l-3.5-11.7c0-0.1-0.1-0.2-0.2-0.4
		c-0.1-0.1-0.2-0.2-0.4-0.2h-1.6c-0.1,0-0.3,0.1-0.4,0.2c-0.1,0.2-0.2,0.3-0.2,0.4v11.4l-0.2,0.1h-3.2V203.1z M133.6,218.2
		C133.6,218.3,133.6,218.3,133.6,218.2c0.1,0,0.1,0,0.2,0.1h3.9c0.2,0,0.4-0.1,0.6-0.2c0.2-0.1,0.4-0.2,0.6-0.4
		c0.2-0.2,0.3-0.4,0.4-0.6c0.1-0.2,0.2-0.4,0.2-0.6v-8.4c0-0.2-0.1-0.4-0.2-0.6c-0.1-0.2-0.3-0.4-0.4-0.6c-0.2-0.2-0.4-0.3-0.6-0.4
		c-0.2-0.1-0.4-0.2-0.6-0.2h-3.9c-0.2,0-0.3,0.1-0.4,0.2c-0.1,0.2-0.2,0.3-0.2,0.5v10.4c0,0.1,0.1,0.3,0.2,0.4
		C133.4,218.1,133.5,218.2,133.6,218.2z"/>
	<path d="M145.6,228.8c0-0.1,0-0.1,0.1-0.1h3.1c0.1,0,0.2,0.1,0.2,0.3c0,0.2,0.1,0.3,0.1,0.4c0.2,0.3,0.4,0.6,0.7,0.8
		c0.3,0.3,0.7,0.4,1,0.4h2.7c0.5,0,0.9-0.2,1.3-0.6c0.4-0.4,0.6-0.8,0.6-1.3v-6.5c0-0.5-0.2-1-0.6-1.3c-0.4-0.3-0.8-0.6-1.3-0.6
		c-0.7,0-1.3,0-2,0c-0.6,0-1.3-0.1-1.9-0.2c-0.6-0.1-1.2-0.4-1.7-0.7c-0.5-0.3-1-0.8-1.4-1.4c-0.3-0.4-0.5-0.8-0.6-1.2
		c-0.2-0.4-0.2-0.9-0.2-1.3v-7.5c0-0.6,0.1-1.2,0.4-1.8c0.3-0.6,0.7-1.1,1.2-1.5c0.5-0.4,1-0.8,1.6-1.1c0.6-0.3,1.2-0.4,1.8-0.4h3
		c0.7,0,1.3,0.1,1.9,0.4c0.6,0.3,1.1,0.6,1.6,1.1c0.5,0.5,0.9,1,1.1,1.6c0.3,0.6,0.4,1.2,0.4,1.9c0,0,0,0.1,0,0.2
		c0,0.1,0,0.1-0.1,0.1h-3.1l-0.1-0.1c-0.1-0.5-0.4-0.9-0.7-1.3c-0.3-0.4-0.7-0.6-1.3-0.6h-2.6c-0.2,0-0.4,0.1-0.6,0.2
		c-0.2,0.1-0.4,0.2-0.6,0.4c-0.2,0.2-0.3,0.3-0.4,0.6c-0.1,0.2-0.2,0.4-0.2,0.6v6.9c0,0.5,0.2,0.9,0.6,1.2c0.4,0.3,0.8,0.5,1.3,0.5
		c0.1,0,0.3,0,0.6,0c0.3,0,0.5,0,0.8,0c0.3,0,0.6,0,0.8,0c0.3,0,0.5,0,0.6,0c1.1,0.1,2.1,0.4,2.9,1c0.8,0.6,1.4,1.4,1.9,2.4
		c0.1,0.3,0.2,0.5,0.3,0.7c0.1,0.2,0.1,0.4,0.1,0.7v7.5c0,0.5-0.1,0.9-0.3,1.3c-0.2,0.4-0.4,0.8-0.6,1.2c-0.4,0.7-1,1.3-1.8,1.7
		c-0.8,0.4-1.6,0.6-2.4,0.6h-2.9c-0.7,0-1.3-0.1-1.9-0.4c-0.6-0.3-1.1-0.6-1.6-1.1c-0.5-0.5-0.9-1-1.1-1.6
		C145.8,230.2,145.6,229.6,145.6,228.8L145.6,228.8z"/>
</g>
<g>
	<path d="M95.4,163.3L95.4,163.3l2.8-0.1l0.1,0.1l0.9,14.6c0,0.2,0.1,0.3,0.3,0.4c0.2,0.1,0.4,0.2,0.5,0.2c0.2,0,0.3-0.1,0.4-0.2
		c0.1-0.2,0.2-0.3,0.2-0.5l1.1-5c0-0.2,0.1-0.2,0.2-0.2c0.1,0,0.2,0.1,0.3,0.2l1.1,5c0,0.2,0.1,0.4,0.2,0.5c0.1,0.1,0.3,0.2,0.5,0.2
		c0.2,0,0.3-0.1,0.5-0.2c0.2-0.1,0.3-0.3,0.3-0.5l0.9-14.7h2.7l0.2,0.2l-1.7,30.6l-0.1,0.1c0,0,0,0-0.1,0c0,0,0,0-0.1,0h-2.9
		l-1.1-5.3c0-0.2-0.1-0.3-0.3-0.4c-0.1-0.1-0.3-0.2-0.4-0.2c-0.2,0-0.4,0.1-0.5,0.2c-0.1,0.1-0.2,0.3-0.2,0.5l-1.1,4.9
		c0,0,0,0.1-0.1,0.2c0,0.1-0.1,0.1-0.1,0.1h-2.8L95.4,163.3z"/>
	<path d="M111.1,190.7h2.7c0.1,0,0.3-0.1,0.4-0.2c0.2-0.1,0.3-0.3,0.3-0.4v-22.9c0-0.1-0.1-0.3-0.2-0.4c-0.1-0.1-0.3-0.2-0.4-0.2
		h-2.6l-0.1-0.2v-3.1l0.1-0.1h10l0.1,0.1c0,0,0,0,0,0.1c0,0,0,0,0,0.1v3.1l-0.1,0.2h-2.7c-0.1,0-0.3,0.1-0.4,0.2
		c-0.1,0.1-0.2,0.3-0.2,0.4v22.9c0,0.1,0.1,0.3,0.2,0.4c0.1,0.1,0.3,0.2,0.4,0.2h2.6l0.1,0.2v3.1l-0.1,0.1h-10.1V190.7z"/>
	<path d="M124,163.2h3.3l5,15.3c0.1,0.3,0.4,0.5,0.6,0.5c0.2,0,0.3-0.1,0.5-0.2c0.2-0.1,0.3-0.3,0.3-0.5v-15.1h3.2l0.1,0.1v30.6
		l-0.1,0.1h-3.2l-5-15.3c0-0.1-0.1-0.2-0.3-0.3c-0.2-0.1-0.3-0.2-0.4-0.2c-0.2,0-0.3,0.1-0.5,0.2c-0.2,0.1-0.3,0.3-0.3,0.5v15
		l-0.2,0.1H124V163.2z"/>
	<path d="M155.7,163.2h8.1c0.5,0,1,0.1,1.5,0.3c0.5,0.2,0.9,0.4,1.4,0.6c0.6,0.6,1.1,1.2,1.6,1.9c0.5,0.7,0.7,1.4,0.7,2.3v8.4
		c0,0.9-0.2,1.7-0.7,2.3c-0.5,0.7-1,1.3-1.6,1.9c-0.4,0.2-0.9,0.4-1.4,0.6c-0.5,0.2-1,0.3-1.5,0.3h-4.1c-0.1,0-0.3,0.1-0.4,0.2
		c-0.1,0.2-0.2,0.3-0.2,0.4v11.4l-0.2,0.1h-3.2V163.2z M159.5,178.3C159.5,178.3,159.5,178.3,159.5,178.3c0.1,0,0.1,0,0.2,0.1h3.9
		c0.2,0,0.4-0.1,0.6-0.2c0.2-0.1,0.4-0.2,0.6-0.4c0.2-0.2,0.3-0.4,0.4-0.6c0.1-0.2,0.2-0.4,0.2-0.6v-8.4c0-0.2-0.1-0.4-0.2-0.6
		c-0.1-0.2-0.3-0.4-0.4-0.6c-0.2-0.2-0.4-0.3-0.6-0.4c-0.2-0.1-0.4-0.2-0.6-0.2h-3.9c-0.2,0-0.3,0.1-0.4,0.2
		c-0.1,0.2-0.2,0.3-0.2,0.5v10.4c0,0.1,0.1,0.3,0.2,0.4C159.3,178.2,159.4,178.3,159.5,178.3z"/>
	<path d="M171.1,163.2h8.1c0.6,0,1.2,0.1,1.8,0.4c0.6,0.3,1.1,0.6,1.6,1.1c0.5,0.5,0.9,1,1.2,1.6c0.3,0.6,0.4,1.2,0.4,1.8v8.8
		c0,0.7-0.2,1.4-0.6,2.1c-0.4,0.7-0.9,1.3-1.5,1.7c-0.1,0.1-0.3,0.2-0.4,0.3c-0.2,0.1-0.3,0.2-0.4,0.2c-0.1,0.1-0.2,0.2-0.3,0.3
		c-0.1,0.1-0.1,0.3-0.1,0.5v0.2l3.4,11.4v0.1c0,0,0,0.1,0,0.2c0,0.1-0.1,0.1-0.1,0.1h-3.3l-3.5-11.7c0-0.1-0.1-0.2-0.2-0.4
		c-0.1-0.1-0.2-0.2-0.4-0.2h-1.6c-0.1,0-0.3,0.1-0.4,0.2c-0.1,0.2-0.2,0.3-0.2,0.4v11.4l-0.2,0.1h-3.2V163.2z M175,178.3
		C175,178.3,175,178.3,175,178.3c0.1,0,0.1,0,0.2,0.1h3.9c0.2,0,0.4-0.1,0.6-0.2c0.2-0.1,0.4-0.2,0.6-0.4c0.2-0.2,0.3-0.4,0.4-0.6
		c0.1-0.2,0.2-0.4,0.2-0.6v-8.4c0-0.2-0.1-0.4-0.2-0.6c-0.1-0.2-0.3-0.4-0.4-0.6c-0.2-0.2-0.4-0.3-0.6-0.4c-0.2-0.1-0.4-0.2-0.6-0.2
		h-3.9c-0.2,0-0.3,0.1-0.4,0.2c-0.1,0.2-0.2,0.3-0.2,0.5v10.4c0,0.1,0.1,0.3,0.2,0.4C174.8,178.2,174.9,178.3,175,178.3z"/>
	<path d="M200.2,163.2C200.2,163.2,200.2,163.2,200.2,163.2L200.2,163.2C200.2,163.3,200.2,163.3,200.2,163.2
		c0.1,0.1,0.1,0.1,0.1,0.1c0,0,0,0,0,0.1v3.1l-0.1,0.2h-9.1c-0.1,0-0.3,0.1-0.4,0.2c-0.1,0.2-0.2,0.3-0.2,0.4v9
		c0,0.1,0.1,0.3,0.2,0.4c0.1,0.2,0.3,0.2,0.4,0.2h5.1l0.1,0.2v3.1l-0.1,0.1h-5c-0.2,0-0.3,0.1-0.5,0.3c-0.2,0.2-0.2,0.3-0.2,0.5v9
		c0,0.2,0.1,0.3,0.2,0.5c0.2,0.1,0.3,0.2,0.5,0.2h9l0.1,0.2v3.1l-0.1,0.1h-13v-30.9H200.2z"/>
	<path d="M224.7,163.2c0.8,0,1.5,0.1,2.2,0.4c0.7,0.3,1.4,0.6,1.9,1.1c0.6,0.5,1.1,1,1.5,1.7c0.4,0.6,0.7,1.3,0.9,2.1
		c0,0.1,0,0.3,0.1,0.5c0,0.3,0,0.5,0,0.5v18.3c0,0.4-0.1,0.8-0.2,1.2c-0.1,0.4-0.2,0.8-0.4,1.1c-0.5,1.2-1.4,2.2-2.4,2.9
		c-1.1,0.7-2.3,1.1-3.6,1.1c-0.8,0-1.7-0.2-2.4-0.5c-0.8-0.3-1.5-0.8-2.1-1.3c-0.6-0.6-1.1-1.2-1.5-2c-0.4-0.8-0.6-1.6-0.6-2.4
		v-18.4c0-0.9,0.2-1.7,0.6-2.4c0.4-0.8,0.9-1.4,1.5-2c0.6-0.6,1.3-1,2.1-1.3C223.1,163.3,223.9,163.2,224.7,163.2z M224.7,166.5
		c-0.4,0-0.8,0.1-1.2,0.2c-0.4,0.2-0.7,0.4-1,0.7c-0.3,0.3-0.5,0.6-0.7,1c-0.2,0.4-0.3,0.8-0.3,1.1v18c0,0.4,0.1,0.8,0.3,1.2
		c0.2,0.4,0.4,0.7,0.7,1c0.3,0.3,0.6,0.5,1,0.7c0.4,0.2,0.8,0.2,1.2,0.2c0.4,0,0.8-0.1,1.2-0.2c0.4-0.2,0.7-0.4,1.1-0.7
		c0.3-0.3,0.6-0.6,0.7-1c0.2-0.4,0.3-0.8,0.3-1.2v-17.9c0-0.4-0.1-0.8-0.3-1.2c-0.2-0.4-0.4-0.7-0.7-1c-0.3-0.3-0.7-0.5-1.1-0.7
		C225.5,166.6,225.1,166.5,224.7,166.5z"/>
	<path d="M234.1,163.3L234.1,163.3l2.8-0.1l0.1,0.1l0.9,14.6c0,0.2,0.1,0.3,0.3,0.4c0.2,0.1,0.4,0.2,0.5,0.2c0.2,0,0.3-0.1,0.4-0.2
		c0.1-0.2,0.2-0.3,0.2-0.5l1.1-5c0-0.2,0.1-0.2,0.2-0.2c0.1,0,0.2,0.1,0.3,0.2l1.1,5c0,0.2,0.1,0.4,0.2,0.5c0.1,0.1,0.3,0.2,0.5,0.2
		c0.2,0,0.3-0.1,0.5-0.2c0.2-0.1,0.3-0.3,0.3-0.5l0.9-14.7h2.7l0.2,0.2l-1.7,30.6l-0.1,0.1c0,0,0,0-0.1,0c0,0,0,0-0.1,0h-2.9
		l-1.1-5.3c0-0.2-0.1-0.3-0.3-0.4c-0.1-0.1-0.3-0.2-0.4-0.2c-0.2,0-0.4,0.1-0.5,0.2c-0.1,0.1-0.2,0.3-0.2,0.5l-1.1,4.9
		c0,0,0,0.1-0.1,0.2c0,0.1-0.1,0.1-0.1,0.1h-2.8L234.1,163.3z"/>
	<path d="M250,163.2h3.3l5,15.3c0.1,0.3,0.4,0.5,0.6,0.5c0.2,0,0.3-0.1,0.5-0.2c0.2-0.1,0.3-0.3,0.3-0.5v-15.1h3.2l0.1,0.1v30.6
		L263,194h-3.2l-5-15.3c0-0.1-0.1-0.2-0.3-0.3c-0.2-0.1-0.3-0.2-0.4-0.2c-0.2,0-0.3,0.1-0.5,0.2c-0.2,0.1-0.3,0.3-0.3,0.5v15
		l-0.2,0.1H250V163.2z"/>
	<path d="M279.2,163.2C279.2,163.2,279.2,163.2,279.2,163.2L279.2,163.2C279.3,163.3,279.3,163.3,279.2,163.2
		c0.1,0.1,0.1,0.1,0.1,0.1c0,0,0,0,0,0.1v3.1l-0.1,0.2h-9.1c-0.1,0-0.3,0.1-0.4,0.2c-0.1,0.2-0.2,0.3-0.2,0.4v9
		c0,0.1,0.1,0.3,0.2,0.4c0.1,0.2,0.3,0.2,0.4,0.2h5.1l0.1,0.2v3.1l-0.1,0.1h-5c-0.2,0-0.3,0.1-0.5,0.3c-0.2,0.2-0.2,0.3-0.2,0.5v9
		c0,0.2,0.1,0.3,0.2,0.5c0.2,0.1,0.3,0.2,0.5,0.2h9l0.1,0.2v3.1l-0.1,0.1h-13v-30.9H279.2z"/>
	<path d="M281.8,163.3l0.1-0.1h7.9c0.7,0,1.3,0.1,1.9,0.4c0.6,0.3,1.2,0.7,1.6,1.1c0.5,0.5,0.9,1,1.1,1.6c0.3,0.6,0.4,1.3,0.4,1.9
		v20.7c0,0.7-0.1,1.3-0.4,1.9c-0.3,0.6-0.6,1.1-1.1,1.6c-0.5,0.5-1,0.9-1.6,1.1c-0.6,0.3-1.3,0.4-1.9,0.4h-8.1V163.3z M285.7,190.6
		c0,0,0.1,0,0.1,0c0,0,0,0,0.1,0h3.8c0.2,0,0.5-0.1,0.7-0.2c0.2-0.1,0.4-0.3,0.6-0.4c0.2-0.2,0.3-0.4,0.4-0.6
		c0.1-0.2,0.2-0.5,0.2-0.7v-20.3c0-0.2-0.1-0.4-0.2-0.6c-0.1-0.2-0.2-0.4-0.4-0.6c-0.2-0.2-0.4-0.3-0.6-0.4
		c-0.2-0.1-0.4-0.2-0.6-0.2h-4c-0.1,0-0.3,0.1-0.4,0.2c-0.1,0.1-0.2,0.3-0.2,0.4V190c0,0.1,0.1,0.3,0.2,0.4
		C285.5,190.5,285.6,190.5,285.7,190.6z"/>
</g>
<g>
	<path class="st8" d="M186,233.9V232c0-0.1,0-0.2-0.1-0.3c-0.1-0.1-0.2-0.2-0.3-0.2h-16.7c-0.1,0-0.2,0.1-0.3,0.2
		c-0.1,0.1-0.2,0.2-0.2,0.3v1.9l-0.1,0.1H166l-0.1-0.1v-7.3l0,0c0,0,0,0,0,0c0,0,0,0,0,0h2.2l0.1,0.1v1.9c0,0.1,0,0.2,0.1,0.3
		c0.1,0.1,0.2,0.1,0.3,0.1h16.7c0.1,0,0.2-0.1,0.3-0.2c0.1-0.1,0.2-0.2,0.2-0.3v-1.9l0.1-0.1h2.2l0.1,0.1v7.4H186z"/>
	<path class="st8" d="M165.9,224.5v-2.4l11.2-3.7c0.2-0.1,0.4-0.3,0.4-0.5c0-0.1,0-0.3-0.1-0.4c-0.1-0.1-0.2-0.2-0.4-0.2h-11V215
		l0.1-0.1h22.4l0.1,0.1v2.4l-11.2,3.7c-0.1,0-0.2,0.1-0.2,0.2c-0.1,0.1-0.1,0.2-0.1,0.3c0,0.1,0,0.2,0.1,0.4
		c0.1,0.1,0.2,0.2,0.4,0.2h10.9l0.1,0.1v2.3H165.9z"/>
	<path class="st8" d="M186.4,211.9c-0.4,0.2-0.8,0.4-1.2,0.6c-0.4,0.2-0.9,0.2-1.3,0.2h-13.4c-0.4,0-0.9-0.1-1.3-0.2
		c-0.4-0.2-0.8-0.3-1.2-0.6c-0.6-0.5-1.1-1.1-1.5-1.7c-0.4-0.7-0.6-1.4-0.6-2.2c0-0.6,0.1-1.2,0.4-1.8c0.2-0.6,0.6-1.1,1-1.6
		c0.4-0.5,0.9-0.8,1.5-1.1c0.6-0.3,1.2-0.4,1.8-0.4c0,0,0.1,0,0.1,0c0,0,0.1,0,0.1,0.1v2.3l0,0c-0.6,0.2-1.2,0.4-1.6,0.8
		c-0.4,0.4-0.6,0.9-0.6,1.6c0,0.3,0.1,0.5,0.2,0.8c0.1,0.3,0.2,0.5,0.4,0.7c0.2,0.2,0.4,0.4,0.7,0.5c0.3,0.1,0.5,0.2,0.8,0.2h13.5
		c0.3,0,0.6-0.1,0.8-0.2c0.2-0.1,0.5-0.3,0.7-0.5c0.2-0.2,0.3-0.5,0.4-0.7c0.1-0.3,0.2-0.5,0.2-0.8c0-0.7-0.2-1.2-0.6-1.6
		c-0.4-0.4-1-0.7-1.6-0.8l0,0v-2.3c0,0,0-0.1,0.1-0.1c0,0,0.1,0,0.1,0c0.5,0,1.1,0.1,1.6,0.3c0.5,0.2,1,0.5,1.4,0.8
		c0.4,0.3,0.7,0.8,1,1.2c0.3,0.5,0.5,1,0.6,1.5c0,0.1,0,0.3,0,0.5c0,0.2,0,0.4,0,0.5c0,0.9-0.2,1.6-0.5,2.3
		C187.6,210.8,187,211.4,186.4,211.9z"/>
</g>
</svg>
